<svg width="135" height="24" viewBox="0 0 135 24" fill="none" xmlns="http://www.w3.org/2000/svg">
<path d="M33.8915 23.1795H30.7148V7.81938H33.8915V10.0447C34.7774 8.51122 36.3164 7.56296 38.4894 7.56296V10.8533H37.6819C35.3406 10.8533 33.8915 11.8295 33.8915 15.0919V23.1795Z" fill="white"/>
<path d="M48.0209 23.4308C43.6179 23.4308 40.3564 20.308 40.3564 15.4829C40.3564 10.6578 43.4787 7.56296 48.0209 7.56296C52.396 7.56296 55.4879 10.6096 55.4879 15.1199C55.4926 15.6416 55.4558 16.1629 55.3778 16.6787H43.6457C43.8685 19.2176 45.6795 20.7498 48.0209 20.7498C49.9712 20.7498 51.0583 19.8015 51.643 18.6032H55.0677C54.2071 21.283 51.7835 23.4308 48.0209 23.4308ZM43.6774 14.117H52.1771C52.1214 11.7457 50.2534 10.2402 47.8855 10.2402C45.7352 10.2402 44.0077 11.6899 43.6774 14.117Z" fill="white"/>
<path d="M64.7963 7.56296C67.3882 7.56296 69.1727 8.7905 70.1194 10.0447V7.8143H73.3239V23.1744H70.1194V20.8894C69.1449 22.1995 67.3047 23.4283 64.7406 23.4283C60.7565 23.4283 57.5508 20.1659 57.5508 15.4309C57.5508 10.6959 60.7629 7.56296 64.7963 7.56296ZM65.4658 10.324C63.0966 10.324 60.8122 12.1088 60.8122 15.4271C60.8122 18.7454 63.0966 20.6698 65.4658 20.6698C67.8628 20.6698 70.1194 18.8012 70.1194 15.4829C70.1194 12.1926 67.8628 10.324 65.4658 10.324Z" fill="white"/>
<path d="M86.6289 14.5905C86.6289 11.7736 85.0963 10.324 82.784 10.324C80.4427 10.324 78.91 11.7736 78.91 14.5905V23.1795H75.7334V7.81937H78.91V9.56991C79.9415 8.31445 81.6412 7.56168 83.4801 7.56168C87.0757 7.56168 89.7777 9.81999 89.7777 14.1157V23.1782H86.6289V14.5905Z" fill="white"/>
<path d="M113.939 14.5905C113.939 11.7736 112.406 10.324 110.093 10.324C107.752 10.324 106.219 11.7736 106.219 14.5905V23.1795H103.07V14.5905C103.07 11.7736 101.537 10.324 99.224 10.324C96.8839 10.324 95.3512 11.7736 95.3512 14.5905V23.1795H92.1733V7.81937H95.3512V9.56991C96.3814 8.31445 98.0533 7.56168 99.8935 7.56168C102.317 7.56168 104.352 8.59372 105.411 10.6083C106.358 8.73971 108.532 7.56802 110.761 7.56802C114.357 7.56802 117.089 9.82634 117.089 14.1221V23.1845H113.939V14.5905Z" fill="white"/>
<path d="M127.029 23.4308C122.654 23.4308 119.338 20.308 119.338 15.4829C119.338 10.6578 122.793 7.56296 127.169 7.56296C131.544 7.56296 135 10.6591 135 15.4829C135 20.3068 131.432 23.4308 127.029 23.4308ZM127.029 20.6698C129.399 20.6698 131.74 18.9688 131.74 15.4829C131.74 11.9971 129.485 10.324 127.113 10.324C124.717 10.324 122.571 11.9971 122.571 15.4829C122.571 18.9688 124.634 20.6698 127.029 20.6698Z" fill="white"/>
<g clip-path="url(#clip0_22_23873)">
<path d="M17.5727 4.6291C16.7139 4.05438 15.8017 3.52737 14.8376 3.16915L14.6667 3.02672C14.5033 2.71977 13.1733 1.37306 13.1282 1.2641C13.0318 1.03193 13.1775 0.718579 13.4188 0.676562C14.078 0.562615 15.5768 2.65283 16.188 3.02672C16.1231 2.55811 15.6438 0.507065 15.6923 0.267065C15.7552 -0.043441 16.2892 -0.0989901 16.5128 0.409498C16.6462 0.712882 17.4065 3.89129 17.5727 4.6291Z" fill="white"/>
<path d="M20.8549 7.72703C21.9085 8.02828 22.9786 8.30888 24.0002 8.70627C23.1243 8.80312 22.2443 8.84656 21.3677 8.93772C20.7619 9.0011 18.8221 9.28953 18.4959 9.2582C17.3485 9.14781 18.7735 7.71706 18.9062 7.22852C19.5489 7.41795 20.2115 7.54329 20.8549 7.72703Z" fill="white"/>
<path d="M12.752 14.5282C12.7219 14.786 12.6576 14.9648 12.5811 15.2048C11.671 18.0471 7.78721 20.2626 5.05969 20.4749C4.23918 20.5382 3.86038 20.4015 3.24773 20.368C2.18858 20.3096 1.12533 20.2683 0.0682392 20.1722C0.0456751 20.0176 0.0928545 20.0184 0.153709 19.9407C0.217983 19.8588 1.69149 18.7158 1.77764 18.6588C1.82277 18.6289 1.81798 18.5819 1.86311 18.552C6.20499 18.4188 8.8908 16.0822 12.752 14.5282Z" fill="white"/>
<path d="M14.8376 3.27597C15.4257 4.02446 15.6807 5.09699 15.2479 5.98221C14.4459 6.02566 13.7778 6.90661 13.9829 7.72703C13.3122 8.09593 12.465 8.57023 12 9.20478C11.5467 9.82294 11.012 11.4545 11.1966 11.6796C12.3782 12.2002 12.9067 13.21 12.7522 14.5282C8.89098 16.0822 6.20517 18.4188 1.86329 18.552C1.81816 18.5819 1.82294 18.6289 1.77782 18.6588C1.2944 18.7934 1.39628 18.3148 1.57269 17.6618C1.98158 16.1506 5.44414 11.1967 7.11115 10.4867C7.10226 6.36038 10.6715 2.07668 14.8376 3.27597Z" fill="#00ACDF"/>
<path d="M17.5727 4.62909C17.5775 4.63265 17.6356 4.69675 17.6411 4.70031C17.693 5.08274 18.7433 7.13094 18.906 7.22851C18.7734 7.71705 17.3484 9.1478 18.4958 9.25819C17.9228 10.632 18.6284 11.2288 18.7351 12.552C18.7864 13.1844 18.7187 13.8367 18.6667 14.457C18.5669 14.5232 18.4869 14.6336 18.3932 14.7063C16.9997 15.7859 14.1867 15.7332 12.5812 15.2048C12.6578 14.9648 12.7221 14.786 12.7522 14.5282C12.9067 13.21 12.3782 12.2002 11.1966 11.6796C11.012 11.4545 11.5467 9.82294 12 9.20477C12.465 8.57023 13.3122 8.09593 13.9829 7.72702C14.1026 8.20631 14.7365 8.6386 15.1966 8.68845C17.3765 8.92632 17.2527 5.87396 15.2479 5.98221C15.6807 5.09698 15.4257 4.02446 14.8376 3.27597V3.16914C15.8017 3.52736 16.7139 4.05437 17.5727 4.62909Z" fill="#FFCA3A"/>
<path d="M18.3934 14.7775C18.3093 15.8408 17.9879 16.9382 17.5045 17.8754C15.0915 22.5565 9.13664 22.6505 5.06006 20.4748C7.78758 20.2626 11.6713 18.0471 12.5814 15.2048C14.1869 15.7332 16.9999 15.7859 18.3934 14.7063V14.7775Z" fill="#FFA62B"/>
<path d="M12.3763 22.647C12.2792 22.6705 11.9735 22.741 11.8976 22.7538C11.3807 22.8407 10.8132 22.8862 10.2908 22.8962C10.2874 22.8962 10.0273 22.8962 10.0273 22.8962C10.0273 22.8962 9.83813 22.8969 9.81215 22.8962C7.02993 22.8207 5.53249 21.8016 3.24805 20.4036V20.368C3.8607 20.4015 4.2395 20.5382 5.06001 20.4748C9.13659 22.6505 15.0915 22.5565 17.5045 17.8754C17.8087 18.2507 18.4132 15.9369 18.4617 15.6855C18.578 15.0851 18.6723 14.2775 18.3933 14.7775V14.7063C18.487 14.6336 18.567 14.5232 18.6668 14.457C18.3468 18.2685 16.0843 21.7404 12.3763 22.647Z" fill="#FF595E"/>
<path d="M17.5044 17.8754C17.9878 16.9382 18.3092 15.8408 18.3933 14.7775C18.6723 14.2776 18.5779 15.0852 18.4617 15.6855C18.4131 15.9369 17.8087 18.2507 17.5044 17.8754Z" fill="#F6724D"/>
<path d="M15.2477 5.98221C17.2525 5.87396 17.3763 8.92632 15.1964 8.68846C14.7363 8.6386 14.1024 8.20632 13.9828 7.72703C13.7776 6.90661 14.4457 6.02566 15.2477 5.98221Z" fill="#001427"/>
<path d="M15.4872 6.94365C15.6486 7.22994 15.3635 7.36383 15.4872 7.65582C14.906 7.69997 14.8582 6.87742 15.4872 6.94365Z" fill="white"/>
<path d="M15.4872 7.65582C15.3634 7.36383 15.6486 7.22994 15.4872 6.94365C15.9788 6.99564 15.9426 7.62092 15.4872 7.65582Z" fill="white"/>
</g>
<defs>
<clipPath id="clip0_22_23873">
<rect width="24" height="23" fill="white"/>
</clipPath>
</defs>
</svg>
