<svg width="208" height="36" viewBox="0 0 208 36" fill="none" xmlns="http://www.w3.org/2000/svg">
<path d="M52.0721 35.6139H47.1914V12.014H52.0721V15.4331C53.4333 13.077 55.7978 11.6201 59.1365 11.6201V16.6755H57.8959C54.2986 16.6755 52.0721 18.1753 52.0721 23.1879V35.6139Z" fill="white"/>
<path d="M73.7813 36C67.0164 36 62.0054 31.2021 62.0054 23.7886C62.0054 16.3751 66.8025 11.6201 73.7813 11.6201C80.5035 11.6201 85.2539 16.301 85.2539 23.2308C85.2611 24.0324 85.2045 24.8333 85.0847 25.6259H67.0591C67.4014 29.5267 70.184 31.8808 73.7813 31.8808C76.7778 31.8808 78.4481 30.4239 79.3465 28.5827H84.6083C83.286 32.7 79.5623 36 73.7813 36ZM67.1078 21.69H80.1671C80.0815 18.0466 77.2114 15.7334 73.5732 15.7334C70.2695 15.7334 67.6153 17.9608 67.1078 21.69Z" fill="white"/>
<path d="M99.5556 11.6201C103.538 11.6201 106.28 13.5061 107.734 15.4331V12.0062H112.658V35.6061H107.734V32.0953C106.237 34.1082 103.41 35.9961 99.4701 35.9961C93.3488 35.9961 88.4233 30.9836 88.4233 23.7086C88.4233 16.4336 93.3585 11.6201 99.5556 11.6201ZM100.584 15.8622C96.9442 15.8622 93.4343 18.6044 93.4343 23.7028C93.4343 28.8011 96.9442 31.7579 100.584 31.7579C104.267 31.7579 107.734 28.8869 107.734 23.7886C107.734 18.7332 104.267 15.8622 100.584 15.8622Z" fill="white"/>
<path d="M133.1 22.4172C133.1 18.0892 130.745 15.8619 127.192 15.8619C123.595 15.8619 121.24 18.0892 121.24 22.4172V35.6136H116.359V12.0137H121.24V14.7033C122.825 12.7744 125.436 11.6178 128.262 11.6178C133.786 11.6178 137.938 15.0876 137.938 21.6877V35.6116H133.1V22.4172Z" fill="white"/>
<path d="M175.06 22.4172C175.06 18.0892 172.705 15.8619 169.151 15.8619C165.554 15.8619 163.199 18.0892 163.199 22.4172V35.6136H158.361V22.4172C158.361 18.0892 156.006 15.8619 152.451 15.8619C148.856 15.8619 146.501 18.0892 146.501 22.4172V35.6136H141.619V12.0137H146.501V14.7033C148.084 12.7744 150.653 11.6178 153.48 11.6178C157.204 11.6178 160.331 13.2035 161.958 16.2988C163.413 13.4278 166.753 11.6275 170.178 11.6275C175.702 11.6275 179.9 15.0973 179.9 21.6975V35.6214H175.06V22.4172Z" fill="white"/>
<path d="M195.173 36C188.451 36 183.356 31.2021 183.356 23.7886C183.356 16.3751 188.664 11.6201 195.387 11.6201C202.109 11.6201 207.419 16.3771 207.419 23.7886C207.419 31.2001 201.938 36 195.173 36ZM195.173 31.7579C198.813 31.7579 202.41 29.1444 202.41 23.7886C202.41 18.4328 198.945 15.8622 195.301 15.8622C191.62 15.8622 188.322 18.4328 188.322 23.7886C188.322 29.1444 191.492 31.7579 195.173 31.7579Z" fill="white"/>
<g clip-path="url(#clip0_36_2838)">
<path d="M26.9993 7.11229C25.6798 6.22927 24.2784 5.41956 22.7971 4.86917L22.5345 4.65033C22.2834 4.17873 20.2401 2.1096 20.1707 1.94218C20.0226 1.58547 20.2464 1.10402 20.6172 1.03947C21.6299 0.864394 23.9328 4.07588 24.872 4.65033C24.7722 3.93035 24.0357 0.779046 24.1103 0.4103C24.207 -0.0667723 25.0274 -0.15212 25.371 0.62914C25.5758 1.09527 26.744 5.9787 26.9993 7.11229Z" fill="white"/>
<path d="M32.0419 11.8721C33.6608 12.3349 35.3049 12.766 36.8745 13.3766C35.5287 13.5254 34.1766 13.5922 32.8298 13.7322C31.899 13.8296 28.9186 14.2728 28.4175 14.2246C26.6547 14.055 28.844 11.8568 29.0478 11.1061C30.0353 11.3972 31.0533 11.5898 32.0419 11.8721Z" fill="white"/>
<path d="M19.5928 22.3217C19.5466 22.7178 19.4478 22.9925 19.3302 23.3612C17.9319 27.7282 11.9647 31.1322 7.77406 31.4583C6.5134 31.5557 5.93139 31.3456 4.99009 31.2942C3.36278 31.2045 1.72917 31.141 0.105009 30.9933C0.0703409 30.7558 0.142829 30.7569 0.236329 30.6377C0.335081 30.5118 2.59903 28.7556 2.7314 28.6681C2.80073 28.6221 2.79338 28.5499 2.86272 28.504C9.53374 28.2993 13.6603 24.7093 19.5928 22.3217Z" fill="white"/>
<path d="M22.7971 5.03332C23.7006 6.18333 24.0925 7.8312 23.4275 9.19129C22.1952 9.25804 21.1688 10.6116 21.4839 11.8721C20.4534 12.4389 19.1517 13.1676 18.4373 14.1426C17.7408 15.0923 16.9193 17.5991 17.2029 17.9449C19.0183 18.7448 19.8304 20.2964 19.5929 22.3217C13.6605 24.7093 9.53388 28.2993 2.86286 28.504C2.79352 28.5499 2.80087 28.6221 2.73154 28.6681C1.98879 28.8749 2.14533 28.1396 2.41637 27.1362C3.0446 24.8143 8.36461 17.203 10.9259 16.1121C10.9122 9.77231 16.3961 3.19069 22.7971 5.03332Z" fill="#00ACDF"/>
<path d="M26.9995 7.11232C27.0068 7.11779 27.0961 7.21627 27.1045 7.22174C27.1844 7.80932 28.798 10.9562 29.048 11.1062C28.8442 11.8568 26.6549 14.055 28.4177 14.2246C27.5373 16.3353 28.6215 17.2523 28.7854 19.2853C28.8642 20.257 28.7602 21.2593 28.6804 22.2123C28.527 22.3141 28.4041 22.4837 28.2601 22.5953C26.1191 24.2541 21.7971 24.1731 19.3304 23.3612C19.4481 22.9925 19.5468 22.7178 19.593 22.3217C19.8305 20.2964 19.0184 18.7448 17.203 17.9449C16.9194 17.5992 17.7409 15.0923 18.4374 14.1426C19.1518 13.1676 20.4535 12.4389 21.484 11.8721C21.6679 12.6085 22.6418 13.2727 23.3488 13.3493C26.698 13.7147 26.5078 9.02498 23.4276 9.1913C24.0926 7.83121 23.7007 6.18334 22.7972 5.03333V4.8692C24.2785 5.41959 25.68 6.2293 26.9995 7.11232Z" fill="#FFCA3A"/>
<path d="M28.2598 22.7047C28.1305 24.3383 27.6368 26.0245 26.894 27.4645C23.1866 34.6567 14.0373 34.8011 7.77393 31.4583C11.9646 31.1322 17.9317 27.7282 19.33 23.3612C21.7967 24.1731 26.1187 24.2541 28.2598 22.5953V22.7047Z" fill="#FFA62B"/>
<path d="M19.0151 34.7956C18.866 34.8317 18.3964 34.94 18.2798 34.9597C17.4855 35.0932 16.6136 35.1633 15.811 35.1786C15.8057 35.1786 15.4062 35.1786 15.4062 35.1786C15.4062 35.1786 15.1155 35.1797 15.0756 35.1786C10.8009 35.0626 8.50014 33.4968 4.99023 31.3489V31.2942C5.93153 31.3456 6.51354 31.5557 7.77421 31.4583C14.0376 34.8011 23.1869 34.6566 26.8943 27.4645C27.3618 28.0411 28.2905 24.486 28.3651 24.0998C28.5437 23.1774 28.6887 21.9365 28.26 22.7047V22.5953C28.404 22.4836 28.5269 22.314 28.6803 22.2123C28.1886 28.0685 24.7123 33.4027 19.0151 34.7956Z" fill="#FF595E"/>
<path d="M26.894 27.4645C27.6368 26.0245 28.1305 24.3384 28.2598 22.7047C28.6884 21.9366 28.5434 23.1774 28.3648 24.0998C28.2902 24.4861 27.3615 28.0411 26.894 27.4645Z" fill="#F6724D"/>
<path d="M23.4273 9.19127C26.5075 9.02496 26.6977 13.7147 23.3485 13.3492C22.6415 13.2726 21.6676 12.6085 21.4838 11.8721C21.1686 10.6115 22.195 9.25802 23.4273 9.19127Z" fill="#001427"/>
<path d="M23.7952 10.6685C24.0432 11.1084 23.6051 11.3141 23.7952 11.7627C22.9023 11.8305 22.8287 10.5667 23.7952 10.6685Z" fill="white"/>
<path d="M23.795 11.7627C23.6048 11.314 24.0429 11.1083 23.795 10.6685C24.5503 10.7483 24.4946 11.709 23.795 11.7627Z" fill="white"/>
</g>
<defs>
<clipPath id="clip0_36_2838">
<rect width="36.8745" height="35.3381" fill="white"/>
</clipPath>
</defs>
</svg>
